<svg xmlns="http://www.w3.org/2000/svg" role="img" aria-labelledby="title desc" viewBox="0 0 1200 520">
  <title id="title">Patchbay CLI workflow</title>
  <desc id="desc">A visual overview showing GitHub issues flowing through Patchbay into a local workspace, handoff files, inbox, and daily report.</desc>
  <defs>
    <linearGradient id="panel" x1="0" x2="1" y1="0" y2="1">
      <stop offset="0%" stop-color="#f8fbff"/>
      <stop offset="100%" stop-color="#eef5f1"/>
    </linearGradient>
    <filter id="shadow" x="-20%" y="-20%" width="140%" height="140%">
      <feDropShadow dx="0" dy="16" stdDeviation="18" flood-color="#122033" flood-opacity="0.14"/>
    </filter>
    <marker id="arrow" markerHeight="10" markerWidth="10" orient="auto" refX="9" refY="3">
      <path d="M0,0 L9,3 L0,6 Z" fill="#56706a"/>
    </marker>
    <style>
      .bg { fill: url(#panel); }
      .title { fill: #172033; font-family: Inter, ui-sans-serif, system-ui, sans-serif; font-size: 42px; font-weight: 800; }
      .subtitle { fill: #51606f; font-family: Inter, ui-sans-serif, system-ui, sans-serif; font-size: 20px; }
      .label { fill: #172033; font-family: Inter, ui-sans-serif, system-ui, sans-serif; font-size: 22px; font-weight: 750; }
      .body { fill: #536170; font-family: Inter, ui-sans-serif, system-ui, sans-serif; font-size: 16px; }
      .mono { font-family: SFMono-Regular, Consolas, "Liberation Mono", monospace; font-size: 15px; }
      .card { fill: #ffffff; stroke: #dce5e2; stroke-width: 1.5; filter: url(#shadow); }
      .line { fill: none; stroke: #56706a; stroke-width: 3; marker-end: url(#arrow); }
    </style>
  </defs>

  <rect class="bg" x="0" y="0" width="1200" height="520" rx="28"/>
  <text class="title" x="72" y="86">Patchbay CLI</text>
  <text class="subtitle" x="74" y="122">Local-first issue discovery, workspace prep, and agent handoff packages.</text>

  <g transform="translate(72 178)">
    <rect class="card" width="200" height="160" rx="18"/>
    <circle cx="48" cy="48" r="20" fill="#2f6fed"/>
    <path d="M39 48h18M48 39v18" stroke="#ffffff" stroke-width="4" stroke-linecap="round"/>
    <text class="label" x="28" y="94">GitHub issues</text>
    <text class="body" x="28" y="124">good first issue</text>
    <text class="body" x="28" y="148">metadata cache</text>
  </g>

  <path class="line" d="M286 258 C324 258 336 258 374 258"/>

  <g transform="translate(386 154)">
    <rect width="248" height="208" rx="22" fill="#172033" filter="url(#shadow)"/>
    <rect x="22" y="24" width="204" height="34" rx="9" fill="#243249"/>
    <circle cx="42" cy="41" r="5" fill="#ff6b65"/>
    <circle cx="60" cy="41" r="5" fill="#f5b941"/>
    <circle cx="78" cy="41" r="5" fill="#4ecb71"/>
    <text class="mono" x="28" y="88" fill="#dbe8ff">$ patchbay scout</text>
    <text class="mono" x="28" y="118" fill="#98e7c4">rank  score  issue</text>
    <text class="mono" x="28" y="148" fill="#ffffff">1     92     #123</text>
    <text class="mono" x="28" y="178" fill="#dbe8ff">$ patchbay prepare</text>
  </g>

  <path class="line" d="M652 258 C690 258 702 258 740 258"/>

  <g transform="translate(752 178)">
    <rect class="card" width="184" height="160" rx="18"/>
    <rect x="30" y="34" width="124" height="76" rx="10" fill="#f1f5f9" stroke="#d8e1ea"/>
    <path d="M56 63h72M56 84h52" stroke="#56706a" stroke-width="6" stroke-linecap="round"/>
    <text class="label" x="26" y="138">Workspace</text>
  </g>

  <path class="line" d="M948 258 C984 258 994 258 1030 258"/>

  <g transform="translate(1042 120)">
    <rect class="card" width="110" height="102" rx="16"/>
    <path d="M35 28h32l18 18v32H35z" fill="#eaf2ff" stroke="#8eb4ff" stroke-width="2"/>
    <path d="M67 28v18h18" fill="none" stroke="#8eb4ff" stroke-width="2"/>
    <text class="body" x="24" y="84">handoff</text>
  </g>

  <g transform="translate(1042 252)">
    <rect class="card" width="110" height="102" rx="16"/>
    <rect x="31" y="28" width="48" height="40" rx="8" fill="#eef9f2" stroke="#83c99d" stroke-width="2"/>
    <path d="M43 48l9 9 19-23" fill="none" stroke="#2e9d57" stroke-width="5" stroke-linecap="round" stroke-linejoin="round"/>
    <text class="body" x="34" y="84">inbox</text>
  </g>

  <g transform="translate(72 404)">
    <rect x="0" y="0" width="1056" height="54" rx="16" fill="#ffffff" stroke="#dce5e2"/>
    <circle cx="31" cy="27" r="8" fill="#2f6fed"/>
    <text class="body" x="52" y="33">Safe boundary: prepares context and handoff files; source edits, commits, pushes, and PRs stay outside Patchbay.</text>
  </g>
</svg>
